<svg width="512" height="512" viewBox="0 0 512 512" fill="none" xmlns="http://www.w3.org/2000/svg">
<g clip-path="url(#clip0_413_37)">
<path d="M0 451.521V200.999C0 123.523 63.0442 60.4785 140.52 60.4785H371.446C448.939 60.4785 512 123.523 512 200.999V244.21C512 321.686 448.956 384.73 371.48 384.73H143.778L0 451.521ZM140.52 91.8065C111.57 91.8378 83.8149 103.352 63.3442 123.823C42.8735 144.293 31.3593 172.049 31.328 200.999V402.42L136.874 353.385H371.48C400.43 353.354 428.185 341.84 448.656 321.369C469.127 300.898 480.641 273.143 480.672 244.193V200.982C480.636 172.027 469.116 144.27 448.639 123.799C428.162 103.328 400.4 91.8164 371.446 91.7896L140.52 91.8065ZM150.85 198.619C158.752 198.619 166.329 201.758 171.916 207.345C177.504 212.932 180.642 220.509 180.642 228.411C180.642 236.312 177.504 243.89 171.916 249.477C166.329 255.064 158.752 258.203 150.85 258.203C142.949 258.203 135.371 255.064 129.784 249.477C124.197 243.89 121.058 236.312 121.058 228.411C121.058 220.509 124.197 212.932 129.784 207.345C135.371 201.758 142.949 198.619 150.85 198.619ZM361.133 198.619C369.034 198.619 376.612 201.758 382.199 207.345C387.786 212.932 390.925 220.509 390.925 228.411C390.925 236.312 387.786 243.89 382.199 249.477C376.612 255.064 369.034 258.203 361.133 258.203C353.231 258.203 345.654 255.064 340.067 249.477C334.48 243.89 331.341 236.312 331.341 228.411C331.341 220.509 334.48 212.932 340.067 207.345C345.654 201.758 353.231 198.619 361.133 198.619ZM255.975 198.619C263.876 198.619 271.454 201.758 277.041 207.345C282.628 212.932 285.767 220.509 285.767 228.411C285.767 236.312 282.628 243.89 277.041 249.477C271.454 255.064 263.876 258.203 255.975 258.203C248.073 258.203 240.496 255.064 234.909 249.477C229.322 243.89 226.183 236.312 226.183 228.411C226.183 220.509 229.322 212.932 234.909 207.345C240.496 201.758 248.073 198.619 255.975 198.619Z" fill="#d1d5db"/>
</g>
<defs>
<clipPath id="clip0_413_37">
<rect width="512" height="512" fill="white"/>
</clipPath>
</defs>
</svg>
